
@startuml

[*] --> IniciandoJornada: universidad abierta
[*] --> [*]: universidad cerrada


IniciandoJornada --> ReponiendoInventario

ReponiendoInventario --> CafeteriaAbierta: inventario listo


CafeteriaAbierta --> PreparandoProductos
CafeteriaAbierta --> AtendiendoClientes

PreparandoProductos --> PreparandoProductos: en horario
AtendiendoClientes --> AtendiendoClientes: en horario

PreparandoProductos --> CafeteriaCerrada: fuera de horario
AtendiendoClientes --> CafeteriaCerrada



CafeteriaCerrada --> [*]


@enduml